# xmcd CD database file
#
# Track frame offsets:
#	150
#	16692
#	22807
#	42887
#	59912
#	73437
#	87872
#	103767
#	113462
#	130282
#
# Disc length: 1958 seconds
#
# Revision: 1
# Processed by: cddbd v1.5.2PL0 Copyright (c) Steve Scherf et al.
# Submitted via: CDex 1.70beta3
#
DISCID=8107a40a
DTITLE=戸川純 - 戸川純ツインベスト 戸川純ヒストリー DISC2
DYEAR=1991
DGENRE=Pop
TTITLE0=レーダーマン
TTITLE1=極東慰安唱歌
TTITLE2=眼球綺談
TTITLE3=極東花嫁
TTITLE4=夢見る約束
TTITLE5=遅咲きガール
TTITLE6=好き好き大好き
TTITLE7=ヘリクツＢＯＹ
TTITLE8=図形の恋
TTITLE9=さよならをおしえて
EXTD=YEAR: 1991
EXTT0=
EXTT1=
EXTT2=
EXTT3=
EXTT4=
EXTT5=
EXTT6=
EXTT7=
EXTT8=
EXTT9=
PLAYORDER=
